<?xml version="1.0" encoding="UTF-8" standalone="no"?>
<svg width="800" height="600" viewBox="0 0 800 600" xmlns="http://www.w3.org/2000/svg">
  <rect width="800" height="600" fill="#f8fafc" />
  <rect x="50" y="50" width="700" height="500" rx="20" fill="#f7931a" opacity="0.1" />
  
  <!-- Título -->
  <text x="400" y="130" font-family="Arial, sans-serif" font-size="32" font-weight="bold" fill="#0d579b" text-anchor="middle">Equipe Geração de Conteúdo</text>
  
  <!-- Figuras de pessoas -->
  <g transform="translate(200, 250)">
    <!-- Pessoa 1 -->
    <circle cx="0" cy="0" r="60" fill="#f7931a" opacity="0.7" />
    <circle cx="0" cy="-15" r="25" fill="#0d579b" />
    <rect x="-25" y="15" width="50" height="60" rx="10" fill="#0d579b" />
    <text x="0" y="100" font-family="Arial, sans-serif" font-size="16" fill="#333" text-anchor="middle">CEO</text>
  </g>
  
  <g transform="translate(400, 250)">
    <!-- Pessoa 2 -->
    <circle cx="0" cy="0" r="60" fill="#f7931a" opacity="0.7" />
    <circle cx="0" cy="-15" r="25" fill="#0d579b" />
    <rect x="-25" y="15" width="50" height="60" rx="10" fill="#0d579b" />
    <text x="0" y="100" font-family="Arial, sans-serif" font-size="16" fill="#333" text-anchor="middle">CTO</text>
  </g>
  
  <g transform="translate(600, 250)">
    <!-- Pessoa 3 -->
    <circle cx="0" cy="0" r="60" fill="#f7931a" opacity="0.7" />
    <circle cx="0" cy="-15" r="25" fill="#0d579b" />
    <rect x="-25" y="15" width="50" height="60" rx="10" fill="#0d579b" />
    <text x="0" y="100" font-family="Arial, sans-serif" font-size="16" fill="#333" text-anchor="middle">Designer</text>
  </g>
  
  <!-- Descrição -->
  <text x="400" y="400" font-family="Arial, sans-serif" font-size="20" fill="#555" text-anchor="middle">Especialistas em sistemas vivos para vendas inteligentes</text>
  <text x="400" y="430" font-family="Arial, sans-serif" font-size="20" fill="#555" text-anchor="middle">e comunicação com bom gosto</text>
  
  <!-- Linha decorativa -->
  <line x1="200" y1="470" x2="600" y2="470" stroke="#f7931a" stroke-width="4" stroke-linecap="round" />
</svg>