<svg xmlns="http://www.w3.org/2000/svg" width="640" height="800" viewBox="0 0 640 800">
  <rect width="640" height="800" fill="#222" />
  <g fill="none" stroke="#444" stroke-width="1" opacity="0.5">
    <!-- Pontos de conexão da rede neural -->
    <circle cx="120" cy="200" r="5" fill="#555" />
    <circle cx="120" cy="400" r="5" fill="#555" />
    <circle cx="120" cy="600" r="5" fill="#555" />
    
    <circle cx="320" cy="150" r="5" fill="#555" />
    <circle cx="320" cy="300" r="5" fill="#555" />
    <circle cx="320" cy="450" r="5" fill="#555" />
    <circle cx="320" cy="600" r="5" fill="#555" />
    
    <circle cx="520" cy="200" r="5" fill="#555" />
    <circle cx="520" cy="400" r="5" fill="#555" />
    <circle cx="520" cy="600" r="5" fill="#555" />
    
    <!-- Conexões entre os pontos -->
    <line x1="120" y1="200" x2="320" y2="150" />
    <line x1="120" y1="200" x2="320" y2="300" />
    <line x1="120" y1="200" x2="320" y2="450" />
    
    <line x1="120" y1="400" x2="320" y2="150" />
    <line x1="120" y1="400" x2="320" y2="300" />
    <line x1="120" y1="400" x2="320" y2="450" />
    <line x1="120" y1="400" x2="320" y2="600" />
    
    <line x1="120" y1="600" x2="320" y2="300" />
    <line x1="120" y1="600" x2="320" y2="450" />
    <line x1="120" y1="600" x2="320" y2="600" />
    
    <line x1="320" y1="150" x2="520" y2="200" />
    <line x1="320" y1="150" x2="520" y2="400" />
    
    <line x1="320" y1="300" x2="520" y2="200" />
    <line x1="320" y1="300" x2="520" y2="400" />
    <line x1="320" y1="300" x2="520" y2="600" />
    
    <line x1="320" y1="450" x2="520" y2="200" />
    <line x1="320" y1="450" x2="520" y2="400" />
    <line x1="320" y1="450" x2="520" y2="600" />
    
    <line x1="320" y1="600" x2="520" y2="400" />
    <line x1="320" y1="600" x2="520" y2="600" />
  </g>
</svg>