<svg width="100" height="100" viewBox="0 0 100 100" xmlns="http://www.w3.org/2000/svg">
  <g>
    <!-- Nós da rede neural -->
    <circle cx="25" cy="25" r="3" fill="white" opacity="0.8" />
    <circle cx="50" cy="25" r="3" fill="white" opacity="0.8" />
    <circle cx="75" cy="25" r="3" fill="white" opacity="0.8" />
    <circle cx="25" cy="50" r="3" fill="white" opacity="0.8" />
    <circle cx="50" cy="50" r="3" fill="white" opacity="0.8" />
    <circle cx="75" cy="50" r="3" fill="white" opacity="0.8" />
    <circle cx="25" cy="75" r="3" fill="white" opacity="0.8" />
    <circle cx="50" cy="75" r="3" fill="white" opacity="0.8" />
    <circle cx="75" cy="75" r="3" fill="white" opacity="0.8" />
    
    <!-- Linhas conectando os pontos (rede neural) -->
    <line x1="25" y1="25" x2="50" y2="50" stroke="white" stroke-width="1" stroke-dasharray="1" />
    <line x1="75" y1="25" x2="50" y2="50" stroke="white" stroke-width="1" stroke-dasharray="1" />
    <line x1="25" y1="75" x2="50" y2="50" stroke="white" stroke-width="1" stroke-dasharray="1" />
    <line x1="75" y1="75" x2="50" y2="50" stroke="white" stroke-width="1" stroke-dasharray="1" />
    <line x1="50" y1="25" x2="50" y2="50" stroke="white" stroke-width="1" stroke-dasharray="1" />
    <line x1="25" y1="50" x2="50" y2="50" stroke="white" stroke-width="1" stroke-dasharray="1" />
    <line x1="75" y1="50" x2="50" y2="50" stroke="white" stroke-width="1" stroke-dasharray="1" />
    <line x1="50" y1="75" x2="50" y2="50" stroke="white" stroke-width="1" stroke-dasharray="1" />
  </g>
</svg>